<svg width="44" height="46" viewBox="0 0 44 46" fill="none" xmlns="http://www.w3.org/2000/svg">
<path d="M37.8009 44H5.58094C5.08652 44.003 4.60849 43.8227 4.23915 43.494C3.8698 43.1653 3.63532 42.7114 3.58094 42.22L2.00096 18.51C1.99263 18.2451 2.03865 17.9813 2.13621 17.7349C2.23377 17.4885 2.38079 17.2646 2.56819 17.0772C2.75559 16.8898 2.97942 16.7428 3.22584 16.6452C3.47226 16.5477 3.73606 16.5017 4.00096 16.51H39.7109C40.2414 16.51 40.7501 16.7207 41.1252 17.0958C41.5002 17.4708 41.7109 17.9796 41.7109 18.51L39.8009 42.24C39.742 42.7278 39.5055 43.1768 39.1366 43.5014C38.7678 43.8261 38.2923 44.0035 37.8009 44Z" stroke="white" stroke-width="4" stroke-linecap="round" stroke-linejoin="round"/>
<path d="M11.851 23V12C11.851 9.34784 12.9045 6.80429 14.7799 4.92892C16.6553 3.05356 19.1988 2 21.851 2C24.5031 2 27.0467 3.05356 28.922 4.92892C30.7974 6.80429 31.851 9.34784 31.851 12V23" stroke="white" stroke-width="4" stroke-linecap="round" stroke-linejoin="round"/>
</svg>
